<svg xmlns="http://www.w3.org/2000/svg" xmlns:xlink="http://www.w3.org/1999/xlink" width="1366" zoomAndPan="magnify" viewBox="0 0 1024.5 576" height="768" preserveAspectRatio="xMidYMid meet" version="1.0"><defs><g/></defs><g fill="#ff00ff" fill-opacity="1"><g transform="translate(4.973275, 347.231073)"><g><path d="M 40.21875 0 L 16.234375 0 C 14.273438 0 12.859375 -0.4375 11.984375 -1.3125 C 11.109375 -2.1875 10.671875 -3.601562 10.671875 -5.5625 L 10.671875 -105.796875 C 10.671875 -107.753906 11.109375 -109.171875 11.984375 -110.046875 C 12.859375 -110.921875 14.273438 -111.359375 16.234375 -111.359375 L 40.21875 -111.359375 C 42.175781 -111.359375 43.59375 -110.921875 44.46875 -110.046875 C 45.34375 -109.171875 45.78125 -107.753906 45.78125 -105.796875 L 45.78125 -70.21875 L 51.96875 -70.21875 L 67.90625 -106.265625 C 68.625 -108.117188 69.601562 -109.429688 70.84375 -110.203125 C 72.082031 -110.972656 73.679688 -111.359375 75.640625 -111.359375 L 99.453125 -111.359375 C 101.203125 -111.359375 102.382812 -110.921875 103 -110.046875 C 103.625 -109.171875 103.578125 -107.910156 102.859375 -106.265625 L 87.078125 -70.21875 C 92.847656 -69.90625 97.460938 -67.867188 100.921875 -64.109375 C 104.378906 -60.347656 106.109375 -55.375 106.109375 -49.1875 L 106.109375 -5.5625 C 106.109375 -3.601562 105.664062 -2.1875 104.78125 -1.3125 C 103.90625 -0.4375 102.488281 0 100.53125 0 L 76.71875 0 C 74.757812 0 73.34375 -0.4375 72.46875 -1.3125 C 71.59375 -2.1875 71.15625 -3.601562 71.15625 -5.5625 L 71.15625 -35.734375 C 71.15625 -37.378906 70.738281 -38.664062 69.90625 -39.59375 C 69.082031 -40.519531 67.847656 -40.984375 66.203125 -40.984375 L 45.78125 -40.984375 L 45.78125 -5.5625 C 45.78125 -3.601562 45.34375 -2.1875 44.46875 -1.3125 C 43.59375 -0.4375 42.175781 0 40.21875 0 Z M 40.21875 0 "/></g></g></g><g fill="#ff00ff" fill-opacity="1"><g transform="translate(120.357563, 347.231073)"><g><path d="M 51.046875 -78.875 L 43.765625 -55.375 L 68.0625 -55.375 L 60.78125 -78.875 C 60.375 -79.8125 59.9375 -80.484375 59.46875 -80.890625 C 59.007812 -81.304688 58.46875 -81.515625 57.84375 -81.515625 L 53.984375 -81.515625 C 53.359375 -81.515625 52.8125 -81.304688 52.34375 -80.890625 C 51.882812 -80.484375 51.453125 -79.8125 51.046875 -78.875 Z M 42.21875 -5.5625 C 42.21875 -3.601562 41.78125 -2.1875 40.90625 -1.3125 C 40.03125 -0.4375 38.613281 0 36.65625 0 L 13.921875 0 C 11.960938 0 10.546875 -0.4375 9.671875 -1.3125 C 8.796875 -2.1875 8.359375 -3.601562 8.359375 -5.5625 L 8.359375 -46.40625 C 8.359375 -49.5 8.847656 -53.054688 9.828125 -57.078125 C 10.804688 -61.097656 12.328125 -65.789062 14.390625 -71.15625 L 27.84375 -106.265625 C 28.457031 -108.015625 29.410156 -109.300781 30.703125 -110.125 C 31.992188 -110.945312 33.671875 -111.359375 35.734375 -111.359375 L 77.34375 -111.359375 C 79.300781 -111.359375 80.921875 -110.945312 82.203125 -110.125 C 83.492188 -109.300781 84.445312 -108.015625 85.0625 -106.265625 L 98.53125 -71.15625 C 100.59375 -65.789062 102.113281 -61.097656 103.09375 -57.078125 C 104.070312 -53.054688 104.5625 -49.5 104.5625 -46.40625 L 104.5625 -5.5625 C 104.5625 -3.601562 104.117188 -2.1875 103.234375 -1.3125 C 102.359375 -0.4375 100.941406 0 98.984375 0 L 75.640625 0 C 73.578125 0 72.054688 -0.4375 71.078125 -1.3125 C 70.097656 -2.1875 69.609375 -3.601562 69.609375 -5.5625 L 69.609375 -27.21875 L 42.21875 -27.21875 Z M 42.21875 -5.5625 "/></g></g></g><g fill="#ff00ff" fill-opacity="1"><g transform="translate(233.267106, 347.231073)"><g><path d="M 39.4375 0 L 16.234375 0 C 14.273438 0 12.859375 -0.4375 11.984375 -1.3125 C 11.109375 -2.1875 10.671875 -3.601562 10.671875 -5.5625 L 10.671875 -105.796875 C 10.671875 -107.753906 11.109375 -109.171875 11.984375 -110.046875 C 12.859375 -110.921875 14.273438 -111.359375 16.234375 -111.359375 L 32.328125 -111.359375 C 34.285156 -111.359375 35.957031 -111.046875 37.34375 -110.421875 C 38.738281 -109.804688 40.109375 -108.726562 41.453125 -107.1875 L 71.453125 -72.84375 L 71.453125 -105.796875 C 71.453125 -107.753906 71.890625 -109.171875 72.765625 -110.046875 C 73.648438 -110.921875 75.070312 -111.359375 77.03125 -111.359375 L 100.234375 -111.359375 C 102.191406 -111.359375 103.609375 -110.921875 104.484375 -110.046875 C 105.359375 -109.171875 105.796875 -107.753906 105.796875 -105.796875 L 105.796875 -5.5625 C 105.796875 -3.601562 105.359375 -2.1875 104.484375 -1.3125 C 103.609375 -0.4375 102.191406 0 100.234375 0 L 77.03125 0 C 75.070312 0 73.648438 -0.4375 72.765625 -1.3125 C 71.890625 -2.1875 71.453125 -3.601562 71.453125 -5.5625 L 71.453125 -24.59375 L 45.015625 -56.609375 L 45.015625 -5.5625 C 45.015625 -3.601562 44.570312 -2.1875 43.6875 -1.3125 C 42.8125 -0.4375 41.394531 0 39.4375 0 Z M 39.4375 0 "/></g></g></g><g fill="#ff00ff" fill-opacity="1"><g transform="translate(349.734094, 347.231073)"><g><path d="M 75.640625 0 L 16.234375 0 C 14.273438 0 12.859375 -0.4375 11.984375 -1.3125 C 11.109375 -2.1875 10.671875 -3.601562 10.671875 -5.5625 L 10.671875 -105.796875 C 10.671875 -107.753906 11.109375 -109.171875 11.984375 -110.046875 C 12.859375 -110.921875 14.273438 -111.359375 16.234375 -111.359375 L 65.578125 -111.359375 C 75.679688 -111.359375 83.15625 -109.425781 88 -105.5625 C 92.851562 -101.695312 95.28125 -95.742188 95.28125 -87.703125 L 95.28125 -80.28125 C 95.28125 -75.945312 94.53125 -72.410156 93.03125 -69.671875 C 91.539062 -66.941406 89.25 -64.90625 86.15625 -63.5625 C 92.75 -62.945312 97.644531 -60.679688 100.84375 -56.765625 C 104.039062 -52.847656 105.640625 -47.125 105.640625 -39.59375 L 105.640625 -25.359375 C 105.640625 -16.703125 103.191406 -10.3125 98.296875 -6.1875 C 93.398438 -2.0625 85.847656 0 75.640625 0 Z M 45.46875 -85.0625 L 45.46875 -68.359375 L 58.625 -68.359375 C 60.582031 -68.359375 62.050781 -68.875 63.03125 -69.90625 C 64.007812 -70.9375 64.5 -72.484375 64.5 -74.546875 L 64.5 -78.875 C 64.5 -80.9375 64.007812 -82.484375 63.03125 -83.515625 C 62.050781 -84.546875 60.582031 -85.0625 58.625 -85.0625 Z M 45.46875 -44.546875 L 45.46875 -26.296875 L 65.578125 -26.296875 C 67.535156 -26.296875 69.003906 -26.8125 69.984375 -27.84375 C 70.960938 -28.875 71.453125 -30.421875 71.453125 -32.484375 L 71.453125 -38.515625 C 71.453125 -40.578125 70.960938 -42.097656 69.984375 -43.078125 C 69.003906 -44.054688 67.535156 -44.546875 65.578125 -44.546875 Z M 45.46875 -44.546875 "/></g></g></g><g fill="#ff00ff" fill-opacity="1"><g transform="translate(461.870281, 347.231073)"><g><path d="M 51.046875 -78.875 L 43.765625 -55.375 L 68.0625 -55.375 L 60.78125 -78.875 C 60.375 -79.8125 59.9375 -80.484375 59.46875 -80.890625 C 59.007812 -81.304688 58.46875 -81.515625 57.84375 -81.515625 L 53.984375 -81.515625 C 53.359375 -81.515625 52.8125 -81.304688 52.34375 -80.890625 C 51.882812 -80.484375 51.453125 -79.8125 51.046875 -78.875 Z M 42.21875 -5.5625 C 42.21875 -3.601562 41.78125 -2.1875 40.90625 -1.3125 C 40.03125 -0.4375 38.613281 0 36.65625 0 L 13.921875 0 C 11.960938 0 10.546875 -0.4375 9.671875 -1.3125 C 8.796875 -2.1875 8.359375 -3.601562 8.359375 -5.5625 L 8.359375 -46.40625 C 8.359375 -49.5 8.847656 -53.054688 9.828125 -57.078125 C 10.804688 -61.097656 12.328125 -65.789062 14.390625 -71.15625 L 27.84375 -106.265625 C 28.457031 -108.015625 29.410156 -109.300781 30.703125 -110.125 C 31.992188 -110.945312 33.671875 -111.359375 35.734375 -111.359375 L 77.34375 -111.359375 C 79.300781 -111.359375 80.921875 -110.945312 82.203125 -110.125 C 83.492188 -109.300781 84.445312 -108.015625 85.0625 -106.265625 L 98.53125 -71.15625 C 100.59375 -65.789062 102.113281 -61.097656 103.09375 -57.078125 C 104.070312 -53.054688 104.5625 -49.5 104.5625 -46.40625 L 104.5625 -5.5625 C 104.5625 -3.601562 104.117188 -2.1875 103.234375 -1.3125 C 102.359375 -0.4375 100.941406 0 98.984375 0 L 75.640625 0 C 73.578125 0 72.054688 -0.4375 71.078125 -1.3125 C 70.097656 -2.1875 69.609375 -3.601562 69.609375 -5.5625 L 69.609375 -27.21875 L 42.21875 -27.21875 Z M 42.21875 -5.5625 "/></g></g></g><g fill="#ff00ff" fill-opacity="1"><g transform="translate(574.779847, 347.231073)"><g><path d="M 39.4375 0 L 16.234375 0 C 14.273438 0 12.859375 -0.4375 11.984375 -1.3125 C 11.109375 -2.1875 10.671875 -3.601562 10.671875 -5.5625 L 10.671875 -105.796875 C 10.671875 -107.753906 11.109375 -109.171875 11.984375 -110.046875 C 12.859375 -110.921875 14.273438 -111.359375 16.234375 -111.359375 L 32.328125 -111.359375 C 34.285156 -111.359375 35.957031 -111.046875 37.34375 -110.421875 C 38.738281 -109.804688 40.109375 -108.726562 41.453125 -107.1875 L 71.453125 -72.84375 L 71.453125 -105.796875 C 71.453125 -107.753906 71.890625 -109.171875 72.765625 -110.046875 C 73.648438 -110.921875 75.070312 -111.359375 77.03125 -111.359375 L 100.234375 -111.359375 C 102.191406 -111.359375 103.609375 -110.921875 104.484375 -110.046875 C 105.359375 -109.171875 105.796875 -107.753906 105.796875 -105.796875 L 105.796875 -5.5625 C 105.796875 -3.601562 105.359375 -2.1875 104.484375 -1.3125 C 103.609375 -0.4375 102.191406 0 100.234375 0 L 77.03125 0 C 75.070312 0 73.648438 -0.4375 72.765625 -1.3125 C 71.890625 -2.1875 71.453125 -3.601562 71.453125 -5.5625 L 71.453125 -24.59375 L 45.015625 -56.609375 L 45.015625 -5.5625 C 45.015625 -3.601562 44.570312 -2.1875 43.6875 -1.3125 C 42.8125 -0.4375 41.394531 0 39.4375 0 Z M 39.4375 0 "/></g></g></g><g fill="#ff00ff" fill-opacity="1"><g transform="translate(691.246835, 347.231073)"><g><path d="M 89.40625 0 L 12.6875 0 C 10.726562 0 9.304688 -0.4375 8.421875 -1.3125 C 7.546875 -2.1875 7.109375 -3.601562 7.109375 -5.5625 L 7.109375 -26.296875 C 7.109375 -28.253906 7.414062 -29.976562 8.03125 -31.46875 C 8.65625 -32.96875 9.640625 -34.441406 10.984375 -35.890625 L 48.5625 -81.515625 L 15.46875 -81.515625 C 13.507812 -81.515625 12.09375 -81.953125 11.21875 -82.828125 C 10.34375 -83.703125 9.90625 -85.117188 9.90625 -87.078125 L 9.90625 -105.796875 C 9.90625 -107.753906 10.34375 -109.171875 11.21875 -110.046875 C 12.09375 -110.921875 13.507812 -111.359375 15.46875 -111.359375 L 86.609375 -111.359375 C 88.578125 -111.359375 90 -110.921875 90.875 -110.046875 C 91.75 -109.171875 92.1875 -107.753906 92.1875 -105.796875 L 92.1875 -82.75 C 92.1875 -80.6875 91.875 -78.90625 91.25 -77.40625 C 90.632812 -75.914062 89.65625 -74.445312 88.3125 -73 L 52.4375 -29.546875 L 89.40625 -29.546875 C 91.363281 -29.546875 92.78125 -29.101562 93.65625 -28.21875 C 94.53125 -27.34375 94.96875 -25.925781 94.96875 -23.96875 L 94.96875 -5.5625 C 94.96875 -3.601562 94.53125 -2.1875 93.65625 -1.3125 C 92.78125 -0.4375 91.363281 0 89.40625 0 Z M 89.40625 0 "/></g></g></g><g fill="#ff00ff" fill-opacity="1"><g transform="translate(793.329396, 347.231073)"><g><path d="M 88.015625 0 L 16.234375 0 C 14.273438 0 12.859375 -0.4375 11.984375 -1.3125 C 11.109375 -2.1875 10.671875 -3.601562 10.671875 -5.5625 L 10.671875 -105.796875 C 10.671875 -107.753906 11.109375 -109.171875 11.984375 -110.046875 C 12.859375 -110.921875 14.273438 -111.359375 16.234375 -111.359375 L 88.015625 -111.359375 C 89.972656 -111.359375 91.390625 -110.921875 92.265625 -110.046875 C 93.140625 -109.171875 93.578125 -107.753906 93.578125 -105.796875 L 93.578125 -87.703125 C 93.578125 -85.742188 93.140625 -84.320312 92.265625 -83.4375 C 91.390625 -82.5625 89.972656 -82.125 88.015625 -82.125 L 45.3125 -82.125 L 45.3125 -70.21875 L 75.484375 -70.21875 C 77.441406 -70.21875 78.859375 -69.78125 79.734375 -68.90625 C 80.609375 -68.03125 81.046875 -66.613281 81.046875 -64.65625 L 81.046875 -48.109375 C 81.046875 -46.148438 80.609375 -44.726562 79.734375 -43.84375 C 78.859375 -42.96875 77.441406 -42.53125 75.484375 -42.53125 L 45.3125 -42.53125 L 45.3125 -29.234375 L 88.015625 -29.234375 C 89.972656 -29.234375 91.390625 -28.796875 92.265625 -27.921875 C 93.140625 -27.046875 93.578125 -25.628906 93.578125 -23.671875 L 93.578125 -5.5625 C 93.578125 -3.601562 93.140625 -2.1875 92.265625 -1.3125 C 91.390625 -0.4375 89.972656 0 88.015625 0 Z M 88.015625 0 "/></g></g></g><g fill="#ff00ff" fill-opacity="1"><g transform="translate(894.483973, 347.231073)"><g><path d="M 39.4375 0 L 16.234375 0 C 14.273438 0 12.859375 -0.4375 11.984375 -1.3125 C 11.109375 -2.1875 10.671875 -3.601562 10.671875 -5.5625 L 10.671875 -105.796875 C 10.671875 -107.753906 11.109375 -109.171875 11.984375 -110.046875 C 12.859375 -110.921875 14.273438 -111.359375 16.234375 -111.359375 L 32.328125 -111.359375 C 34.285156 -111.359375 35.957031 -111.046875 37.34375 -110.421875 C 38.738281 -109.804688 40.109375 -108.726562 41.453125 -107.1875 L 71.453125 -72.84375 L 71.453125 -105.796875 C 71.453125 -107.753906 71.890625 -109.171875 72.765625 -110.046875 C 73.648438 -110.921875 75.070312 -111.359375 77.03125 -111.359375 L 100.234375 -111.359375 C 102.191406 -111.359375 103.609375 -110.921875 104.484375 -110.046875 C 105.359375 -109.171875 105.796875 -107.753906 105.796875 -105.796875 L 105.796875 -5.5625 C 105.796875 -3.601562 105.359375 -2.1875 104.484375 -1.3125 C 103.609375 -0.4375 102.191406 0 100.234375 0 L 77.03125 0 C 75.070312 0 73.648438 -0.4375 72.765625 -1.3125 C 71.890625 -2.1875 71.453125 -3.601562 71.453125 -5.5625 L 71.453125 -24.59375 L 45.015625 -56.609375 L 45.015625 -5.5625 C 45.015625 -3.601562 44.570312 -2.1875 43.6875 -1.3125 C 42.8125 -0.4375 41.394531 0 39.4375 0 Z M 39.4375 0 "/></g></g></g><g fill="#00ffff" fill-opacity="1"><g transform="translate(13.0335, 339.714792)"><g><path d="M 40.21875 0 L 16.234375 0 C 14.273438 0 12.859375 -0.4375 11.984375 -1.3125 C 11.109375 -2.1875 10.671875 -3.601562 10.671875 -5.5625 L 10.671875 -105.796875 C 10.671875 -107.753906 11.109375 -109.171875 11.984375 -110.046875 C 12.859375 -110.921875 14.273438 -111.359375 16.234375 -111.359375 L 40.21875 -111.359375 C 42.175781 -111.359375 43.59375 -110.921875 44.46875 -110.046875 C 45.34375 -109.171875 45.78125 -107.753906 45.78125 -105.796875 L 45.78125 -70.21875 L 51.96875 -70.21875 L 67.90625 -106.265625 C 68.625 -108.117188 69.601562 -109.429688 70.84375 -110.203125 C 72.082031 -110.972656 73.679688 -111.359375 75.640625 -111.359375 L 99.453125 -111.359375 C 101.203125 -111.359375 102.382812 -110.921875 103 -110.046875 C 103.625 -109.171875 103.578125 -107.910156 102.859375 -106.265625 L 87.078125 -70.21875 C 92.847656 -69.90625 97.460938 -67.867188 100.921875 -64.109375 C 104.378906 -60.347656 106.109375 -55.375 106.109375 -49.1875 L 106.109375 -5.5625 C 106.109375 -3.601562 105.664062 -2.1875 104.78125 -1.3125 C 103.90625 -0.4375 102.488281 0 100.53125 0 L 76.71875 0 C 74.757812 0 73.34375 -0.4375 72.46875 -1.3125 C 71.59375 -2.1875 71.15625 -3.601562 71.15625 -5.5625 L 71.15625 -35.734375 C 71.15625 -37.378906 70.738281 -38.664062 69.90625 -39.59375 C 69.082031 -40.519531 67.847656 -40.984375 66.203125 -40.984375 L 45.78125 -40.984375 L 45.78125 -5.5625 C 45.78125 -3.601562 45.34375 -2.1875 44.46875 -1.3125 C 43.59375 -0.4375 42.175781 0 40.21875 0 Z M 40.21875 0 "/></g></g></g><g fill="#00ffff" fill-opacity="1"><g transform="translate(128.417788, 339.714792)"><g><path d="M 51.046875 -78.875 L 43.765625 -55.375 L 68.0625 -55.375 L 60.78125 -78.875 C 60.375 -79.8125 59.9375 -80.484375 59.46875 -80.890625 C 59.007812 -81.304688 58.46875 -81.515625 57.84375 -81.515625 L 53.984375 -81.515625 C 53.359375 -81.515625 52.8125 -81.304688 52.34375 -80.890625 C 51.882812 -80.484375 51.453125 -79.8125 51.046875 -78.875 Z M 42.21875 -5.5625 C 42.21875 -3.601562 41.78125 -2.1875 40.90625 -1.3125 C 40.03125 -0.4375 38.613281 0 36.65625 0 L 13.921875 0 C 11.960938 0 10.546875 -0.4375 9.671875 -1.3125 C 8.796875 -2.1875 8.359375 -3.601562 8.359375 -5.5625 L 8.359375 -46.40625 C 8.359375 -49.5 8.847656 -53.054688 9.828125 -57.078125 C 10.804688 -61.097656 12.328125 -65.789062 14.390625 -71.15625 L 27.84375 -106.265625 C 28.457031 -108.015625 29.410156 -109.300781 30.703125 -110.125 C 31.992188 -110.945312 33.671875 -111.359375 35.734375 -111.359375 L 77.34375 -111.359375 C 79.300781 -111.359375 80.921875 -110.945312 82.203125 -110.125 C 83.492188 -109.300781 84.445312 -108.015625 85.0625 -106.265625 L 98.53125 -71.15625 C 100.59375 -65.789062 102.113281 -61.097656 103.09375 -57.078125 C 104.070312 -53.054688 104.5625 -49.5 104.5625 -46.40625 L 104.5625 -5.5625 C 104.5625 -3.601562 104.117188 -2.1875 103.234375 -1.3125 C 102.359375 -0.4375 100.941406 0 98.984375 0 L 75.640625 0 C 73.578125 0 72.054688 -0.4375 71.078125 -1.3125 C 70.097656 -2.1875 69.609375 -3.601562 69.609375 -5.5625 L 69.609375 -27.21875 L 42.21875 -27.21875 Z M 42.21875 -5.5625 "/></g></g></g><g fill="#00ffff" fill-opacity="1"><g transform="translate(241.327331, 339.714792)"><g><path d="M 39.4375 0 L 16.234375 0 C 14.273438 0 12.859375 -0.4375 11.984375 -1.3125 C 11.109375 -2.1875 10.671875 -3.601562 10.671875 -5.5625 L 10.671875 -105.796875 C 10.671875 -107.753906 11.109375 -109.171875 11.984375 -110.046875 C 12.859375 -110.921875 14.273438 -111.359375 16.234375 -111.359375 L 32.328125 -111.359375 C 34.285156 -111.359375 35.957031 -111.046875 37.34375 -110.421875 C 38.738281 -109.804688 40.109375 -108.726562 41.453125 -107.1875 L 71.453125 -72.84375 L 71.453125 -105.796875 C 71.453125 -107.753906 71.890625 -109.171875 72.765625 -110.046875 C 73.648438 -110.921875 75.070312 -111.359375 77.03125 -111.359375 L 100.234375 -111.359375 C 102.191406 -111.359375 103.609375 -110.921875 104.484375 -110.046875 C 105.359375 -109.171875 105.796875 -107.753906 105.796875 -105.796875 L 105.796875 -5.5625 C 105.796875 -3.601562 105.359375 -2.1875 104.484375 -1.3125 C 103.609375 -0.4375 102.191406 0 100.234375 0 L 77.03125 0 C 75.070312 0 73.648438 -0.4375 72.765625 -1.3125 C 71.890625 -2.1875 71.453125 -3.601562 71.453125 -5.5625 L 71.453125 -24.59375 L 45.015625 -56.609375 L 45.015625 -5.5625 C 45.015625 -3.601562 44.570312 -2.1875 43.6875 -1.3125 C 42.8125 -0.4375 41.394531 0 39.4375 0 Z M 39.4375 0 "/></g></g></g><g fill="#00ffff" fill-opacity="1"><g transform="translate(357.79432, 339.714792)"><g><path d="M 75.640625 0 L 16.234375 0 C 14.273438 0 12.859375 -0.4375 11.984375 -1.3125 C 11.109375 -2.1875 10.671875 -3.601562 10.671875 -5.5625 L 10.671875 -105.796875 C 10.671875 -107.753906 11.109375 -109.171875 11.984375 -110.046875 C 12.859375 -110.921875 14.273438 -111.359375 16.234375 -111.359375 L 65.578125 -111.359375 C 75.679688 -111.359375 83.15625 -109.425781 88 -105.5625 C 92.851562 -101.695312 95.28125 -95.742188 95.28125 -87.703125 L 95.28125 -80.28125 C 95.28125 -75.945312 94.53125 -72.410156 93.03125 -69.671875 C 91.539062 -66.941406 89.25 -64.90625 86.15625 -63.5625 C 92.75 -62.945312 97.644531 -60.679688 100.84375 -56.765625 C 104.039062 -52.847656 105.640625 -47.125 105.640625 -39.59375 L 105.640625 -25.359375 C 105.640625 -16.703125 103.191406 -10.3125 98.296875 -6.1875 C 93.398438 -2.0625 85.847656 0 75.640625 0 Z M 45.46875 -85.0625 L 45.46875 -68.359375 L 58.625 -68.359375 C 60.582031 -68.359375 62.050781 -68.875 63.03125 -69.90625 C 64.007812 -70.9375 64.5 -72.484375 64.5 -74.546875 L 64.5 -78.875 C 64.5 -80.9375 64.007812 -82.484375 63.03125 -83.515625 C 62.050781 -84.546875 60.582031 -85.0625 58.625 -85.0625 Z M 45.46875 -44.546875 L 45.46875 -26.296875 L 65.578125 -26.296875 C 67.535156 -26.296875 69.003906 -26.8125 69.984375 -27.84375 C 70.960938 -28.875 71.453125 -30.421875 71.453125 -32.484375 L 71.453125 -38.515625 C 71.453125 -40.578125 70.960938 -42.097656 69.984375 -43.078125 C 69.003906 -44.054688 67.535156 -44.546875 65.578125 -44.546875 Z M 45.46875 -44.546875 "/></g></g></g><g fill="#00ffff" fill-opacity="1"><g transform="translate(469.930506, 339.714792)"><g><path d="M 51.046875 -78.875 L 43.765625 -55.375 L 68.0625 -55.375 L 60.78125 -78.875 C 60.375 -79.8125 59.9375 -80.484375 59.46875 -80.890625 C 59.007812 -81.304688 58.46875 -81.515625 57.84375 -81.515625 L 53.984375 -81.515625 C 53.359375 -81.515625 52.8125 -81.304688 52.34375 -80.890625 C 51.882812 -80.484375 51.453125 -79.8125 51.046875 -78.875 Z M 42.21875 -5.5625 C 42.21875 -3.601562 41.78125 -2.1875 40.90625 -1.3125 C 40.03125 -0.4375 38.613281 0 36.65625 0 L 13.921875 0 C 11.960938 0 10.546875 -0.4375 9.671875 -1.3125 C 8.796875 -2.1875 8.359375 -3.601562 8.359375 -5.5625 L 8.359375 -46.40625 C 8.359375 -49.5 8.847656 -53.054688 9.828125 -57.078125 C 10.804688 -61.097656 12.328125 -65.789062 14.390625 -71.15625 L 27.84375 -106.265625 C 28.457031 -108.015625 29.410156 -109.300781 30.703125 -110.125 C 31.992188 -110.945312 33.671875 -111.359375 35.734375 -111.359375 L 77.34375 -111.359375 C 79.300781 -111.359375 80.921875 -110.945312 82.203125 -110.125 C 83.492188 -109.300781 84.445312 -108.015625 85.0625 -106.265625 L 98.53125 -71.15625 C 100.59375 -65.789062 102.113281 -61.097656 103.09375 -57.078125 C 104.070312 -53.054688 104.5625 -49.5 104.5625 -46.40625 L 104.5625 -5.5625 C 104.5625 -3.601562 104.117188 -2.1875 103.234375 -1.3125 C 102.359375 -0.4375 100.941406 0 98.984375 0 L 75.640625 0 C 73.578125 0 72.054688 -0.4375 71.078125 -1.3125 C 70.097656 -2.1875 69.609375 -3.601562 69.609375 -5.5625 L 69.609375 -27.21875 L 42.21875 -27.21875 Z M 42.21875 -5.5625 "/></g></g></g><g fill="#00ffff" fill-opacity="1"><g transform="translate(582.840072, 339.714792)"><g><path d="M 39.4375 0 L 16.234375 0 C 14.273438 0 12.859375 -0.4375 11.984375 -1.3125 C 11.109375 -2.1875 10.671875 -3.601562 10.671875 -5.5625 L 10.671875 -105.796875 C 10.671875 -107.753906 11.109375 -109.171875 11.984375 -110.046875 C 12.859375 -110.921875 14.273438 -111.359375 16.234375 -111.359375 L 32.328125 -111.359375 C 34.285156 -111.359375 35.957031 -111.046875 37.34375 -110.421875 C 38.738281 -109.804688 40.109375 -108.726562 41.453125 -107.1875 L 71.453125 -72.84375 L 71.453125 -105.796875 C 71.453125 -107.753906 71.890625 -109.171875 72.765625 -110.046875 C 73.648438 -110.921875 75.070312 -111.359375 77.03125 -111.359375 L 100.234375 -111.359375 C 102.191406 -111.359375 103.609375 -110.921875 104.484375 -110.046875 C 105.359375 -109.171875 105.796875 -107.753906 105.796875 -105.796875 L 105.796875 -5.5625 C 105.796875 -3.601562 105.359375 -2.1875 104.484375 -1.3125 C 103.609375 -0.4375 102.191406 0 100.234375 0 L 77.03125 0 C 75.070312 0 73.648438 -0.4375 72.765625 -1.3125 C 71.890625 -2.1875 71.453125 -3.601562 71.453125 -5.5625 L 71.453125 -24.59375 L 45.015625 -56.609375 L 45.015625 -5.5625 C 45.015625 -3.601562 44.570312 -2.1875 43.6875 -1.3125 C 42.8125 -0.4375 41.394531 0 39.4375 0 Z M 39.4375 0 "/></g></g></g><g fill="#00ffff" fill-opacity="1"><g transform="translate(699.307061, 339.714792)"><g><path d="M 89.40625 0 L 12.6875 0 C 10.726562 0 9.304688 -0.4375 8.421875 -1.3125 C 7.546875 -2.1875 7.109375 -3.601562 7.109375 -5.5625 L 7.109375 -26.296875 C 7.109375 -28.253906 7.414062 -29.976562 8.03125 -31.46875 C 8.65625 -32.96875 9.640625 -34.441406 10.984375 -35.890625 L 48.5625 -81.515625 L 15.46875 -81.515625 C 13.507812 -81.515625 12.09375 -81.953125 11.21875 -82.828125 C 10.34375 -83.703125 9.90625 -85.117188 9.90625 -87.078125 L 9.90625 -105.796875 C 9.90625 -107.753906 10.34375 -109.171875 11.21875 -110.046875 C 12.09375 -110.921875 13.507812 -111.359375 15.46875 -111.359375 L 86.609375 -111.359375 C 88.578125 -111.359375 90 -110.921875 90.875 -110.046875 C 91.75 -109.171875 92.1875 -107.753906 92.1875 -105.796875 L 92.1875 -82.75 C 92.1875 -80.6875 91.875 -78.90625 91.25 -77.40625 C 90.632812 -75.914062 89.65625 -74.445312 88.3125 -73 L 52.4375 -29.546875 L 89.40625 -29.546875 C 91.363281 -29.546875 92.78125 -29.101562 93.65625 -28.21875 C 94.53125 -27.34375 94.96875 -25.925781 94.96875 -23.96875 L 94.96875 -5.5625 C 94.96875 -3.601562 94.53125 -2.1875 93.65625 -1.3125 C 92.78125 -0.4375 91.363281 0 89.40625 0 Z M 89.40625 0 "/></g></g></g><g fill="#00ffff" fill-opacity="1"><g transform="translate(801.389621, 339.714792)"><g><path d="M 88.015625 0 L 16.234375 0 C 14.273438 0 12.859375 -0.4375 11.984375 -1.3125 C 11.109375 -2.1875 10.671875 -3.601562 10.671875 -5.5625 L 10.671875 -105.796875 C 10.671875 -107.753906 11.109375 -109.171875 11.984375 -110.046875 C 12.859375 -110.921875 14.273438 -111.359375 16.234375 -111.359375 L 88.015625 -111.359375 C 89.972656 -111.359375 91.390625 -110.921875 92.265625 -110.046875 C 93.140625 -109.171875 93.578125 -107.753906 93.578125 -105.796875 L 93.578125 -87.703125 C 93.578125 -85.742188 93.140625 -84.320312 92.265625 -83.4375 C 91.390625 -82.5625 89.972656 -82.125 88.015625 -82.125 L 45.3125 -82.125 L 45.3125 -70.21875 L 75.484375 -70.21875 C 77.441406 -70.21875 78.859375 -69.78125 79.734375 -68.90625 C 80.609375 -68.03125 81.046875 -66.613281 81.046875 -64.65625 L 81.046875 -48.109375 C 81.046875 -46.148438 80.609375 -44.726562 79.734375 -43.84375 C 78.859375 -42.96875 77.441406 -42.53125 75.484375 -42.53125 L 45.3125 -42.53125 L 45.3125 -29.234375 L 88.015625 -29.234375 C 89.972656 -29.234375 91.390625 -28.796875 92.265625 -27.921875 C 93.140625 -27.046875 93.578125 -25.628906 93.578125 -23.671875 L 93.578125 -5.5625 C 93.578125 -3.601562 93.140625 -2.1875 92.265625 -1.3125 C 91.390625 -0.4375 89.972656 0 88.015625 0 Z M 88.015625 0 "/></g></g></g><g fill="#00ffff" fill-opacity="1"><g transform="translate(902.544199, 339.714792)"><g><path d="M 39.4375 0 L 16.234375 0 C 14.273438 0 12.859375 -0.4375 11.984375 -1.3125 C 11.109375 -2.1875 10.671875 -3.601562 10.671875 -5.5625 L 10.671875 -105.796875 C 10.671875 -107.753906 11.109375 -109.171875 11.984375 -110.046875 C 12.859375 -110.921875 14.273438 -111.359375 16.234375 -111.359375 L 32.328125 -111.359375 C 34.285156 -111.359375 35.957031 -111.046875 37.34375 -110.421875 C 38.738281 -109.804688 40.109375 -108.726562 41.453125 -107.1875 L 71.453125 -72.84375 L 71.453125 -105.796875 C 71.453125 -107.753906 71.890625 -109.171875 72.765625 -110.046875 C 73.648438 -110.921875 75.070312 -111.359375 77.03125 -111.359375 L 100.234375 -111.359375 C 102.191406 -111.359375 103.609375 -110.921875 104.484375 -110.046875 C 105.359375 -109.171875 105.796875 -107.753906 105.796875 -105.796875 L 105.796875 -5.5625 C 105.796875 -3.601562 105.359375 -2.1875 104.484375 -1.3125 C 103.609375 -0.4375 102.191406 0 100.234375 0 L 77.03125 0 C 75.070312 0 73.648438 -0.4375 72.765625 -1.3125 C 71.890625 -2.1875 71.453125 -3.601562 71.453125 -5.5625 L 71.453125 -24.59375 L 45.015625 -56.609375 L 45.015625 -5.5625 C 45.015625 -3.601562 44.570312 -2.1875 43.6875 -1.3125 C 42.8125 -0.4375 41.394531 0 39.4375 0 Z M 39.4375 0 "/></g></g></g><g fill="#7843e6" fill-opacity="1"><g transform="translate(9.003388, 343.472933)"><g><path d="M 40.21875 0 L 16.234375 0 C 14.273438 0 12.859375 -0.4375 11.984375 -1.3125 C 11.109375 -2.1875 10.671875 -3.601562 10.671875 -5.5625 L 10.671875 -105.796875 C 10.671875 -107.753906 11.109375 -109.171875 11.984375 -110.046875 C 12.859375 -110.921875 14.273438 -111.359375 16.234375 -111.359375 L 40.21875 -111.359375 C 42.175781 -111.359375 43.59375 -110.921875 44.46875 -110.046875 C 45.34375 -109.171875 45.78125 -107.753906 45.78125 -105.796875 L 45.78125 -70.21875 L 51.96875 -70.21875 L 67.90625 -106.265625 C 68.625 -108.117188 69.601562 -109.429688 70.84375 -110.203125 C 72.082031 -110.972656 73.679688 -111.359375 75.640625 -111.359375 L 99.453125 -111.359375 C 101.203125 -111.359375 102.382812 -110.921875 103 -110.046875 C 103.625 -109.171875 103.578125 -107.910156 102.859375 -106.265625 L 87.078125 -70.21875 C 92.847656 -69.90625 97.460938 -67.867188 100.921875 -64.109375 C 104.378906 -60.347656 106.109375 -55.375 106.109375 -49.1875 L 106.109375 -5.5625 C 106.109375 -3.601562 105.664062 -2.1875 104.78125 -1.3125 C 103.90625 -0.4375 102.488281 0 100.53125 0 L 76.71875 0 C 74.757812 0 73.34375 -0.4375 72.46875 -1.3125 C 71.59375 -2.1875 71.15625 -3.601562 71.15625 -5.5625 L 71.15625 -35.734375 C 71.15625 -37.378906 70.738281 -38.664062 69.90625 -39.59375 C 69.082031 -40.519531 67.847656 -40.984375 66.203125 -40.984375 L 45.78125 -40.984375 L 45.78125 -5.5625 C 45.78125 -3.601562 45.34375 -2.1875 44.46875 -1.3125 C 43.59375 -0.4375 42.175781 0 40.21875 0 Z M 40.21875 0 "/></g></g></g><g fill="#7843e6" fill-opacity="1"><g transform="translate(124.387676, 343.472933)"><g><path d="M 51.046875 -78.875 L 43.765625 -55.375 L 68.0625 -55.375 L 60.78125 -78.875 C 60.375 -79.8125 59.9375 -80.484375 59.46875 -80.890625 C 59.007812 -81.304688 58.46875 -81.515625 57.84375 -81.515625 L 53.984375 -81.515625 C 53.359375 -81.515625 52.8125 -81.304688 52.34375 -80.890625 C 51.882812 -80.484375 51.453125 -79.8125 51.046875 -78.875 Z M 42.21875 -5.5625 C 42.21875 -3.601562 41.78125 -2.1875 40.90625 -1.3125 C 40.03125 -0.4375 38.613281 0 36.65625 0 L 13.921875 0 C 11.960938 0 10.546875 -0.4375 9.671875 -1.3125 C 8.796875 -2.1875 8.359375 -3.601562 8.359375 -5.5625 L 8.359375 -46.40625 C 8.359375 -49.5 8.847656 -53.054688 9.828125 -57.078125 C 10.804688 -61.097656 12.328125 -65.789062 14.390625 -71.15625 L 27.84375 -106.265625 C 28.457031 -108.015625 29.410156 -109.300781 30.703125 -110.125 C 31.992188 -110.945312 33.671875 -111.359375 35.734375 -111.359375 L 77.34375 -111.359375 C 79.300781 -111.359375 80.921875 -110.945312 82.203125 -110.125 C 83.492188 -109.300781 84.445312 -108.015625 85.0625 -106.265625 L 98.53125 -71.15625 C 100.59375 -65.789062 102.113281 -61.097656 103.09375 -57.078125 C 104.070312 -53.054688 104.5625 -49.5 104.5625 -46.40625 L 104.5625 -5.5625 C 104.5625 -3.601562 104.117188 -2.1875 103.234375 -1.3125 C 102.359375 -0.4375 100.941406 0 98.984375 0 L 75.640625 0 C 73.578125 0 72.054688 -0.4375 71.078125 -1.3125 C 70.097656 -2.1875 69.609375 -3.601562 69.609375 -5.5625 L 69.609375 -27.21875 L 42.21875 -27.21875 Z M 42.21875 -5.5625 "/></g></g></g><g fill="#7843e6" fill-opacity="1"><g transform="translate(237.297219, 343.472933)"><g><path d="M 39.4375 0 L 16.234375 0 C 14.273438 0 12.859375 -0.4375 11.984375 -1.3125 C 11.109375 -2.1875 10.671875 -3.601562 10.671875 -5.5625 L 10.671875 -105.796875 C 10.671875 -107.753906 11.109375 -109.171875 11.984375 -110.046875 C 12.859375 -110.921875 14.273438 -111.359375 16.234375 -111.359375 L 32.328125 -111.359375 C 34.285156 -111.359375 35.957031 -111.046875 37.34375 -110.421875 C 38.738281 -109.804688 40.109375 -108.726562 41.453125 -107.1875 L 71.453125 -72.84375 L 71.453125 -105.796875 C 71.453125 -107.753906 71.890625 -109.171875 72.765625 -110.046875 C 73.648438 -110.921875 75.070312 -111.359375 77.03125 -111.359375 L 100.234375 -111.359375 C 102.191406 -111.359375 103.609375 -110.921875 104.484375 -110.046875 C 105.359375 -109.171875 105.796875 -107.753906 105.796875 -105.796875 L 105.796875 -5.5625 C 105.796875 -3.601562 105.359375 -2.1875 104.484375 -1.3125 C 103.609375 -0.4375 102.191406 0 100.234375 0 L 77.03125 0 C 75.070312 0 73.648438 -0.4375 72.765625 -1.3125 C 71.890625 -2.1875 71.453125 -3.601562 71.453125 -5.5625 L 71.453125 -24.59375 L 45.015625 -56.609375 L 45.015625 -5.5625 C 45.015625 -3.601562 44.570312 -2.1875 43.6875 -1.3125 C 42.8125 -0.4375 41.394531 0 39.4375 0 Z M 39.4375 0 "/></g></g></g><g fill="#7843e6" fill-opacity="1"><g transform="translate(353.764207, 343.472933)"><g><path d="M 75.640625 0 L 16.234375 0 C 14.273438 0 12.859375 -0.4375 11.984375 -1.3125 C 11.109375 -2.1875 10.671875 -3.601562 10.671875 -5.5625 L 10.671875 -105.796875 C 10.671875 -107.753906 11.109375 -109.171875 11.984375 -110.046875 C 12.859375 -110.921875 14.273438 -111.359375 16.234375 -111.359375 L 65.578125 -111.359375 C 75.679688 -111.359375 83.15625 -109.425781 88 -105.5625 C 92.851562 -101.695312 95.28125 -95.742188 95.28125 -87.703125 L 95.28125 -80.28125 C 95.28125 -75.945312 94.53125 -72.410156 93.03125 -69.671875 C 91.539062 -66.941406 89.25 -64.90625 86.15625 -63.5625 C 92.75 -62.945312 97.644531 -60.679688 100.84375 -56.765625 C 104.039062 -52.847656 105.640625 -47.125 105.640625 -39.59375 L 105.640625 -25.359375 C 105.640625 -16.703125 103.191406 -10.3125 98.296875 -6.1875 C 93.398438 -2.0625 85.847656 0 75.640625 0 Z M 45.46875 -85.0625 L 45.46875 -68.359375 L 58.625 -68.359375 C 60.582031 -68.359375 62.050781 -68.875 63.03125 -69.90625 C 64.007812 -70.9375 64.5 -72.484375 64.5 -74.546875 L 64.5 -78.875 C 64.5 -80.9375 64.007812 -82.484375 63.03125 -83.515625 C 62.050781 -84.546875 60.582031 -85.0625 58.625 -85.0625 Z M 45.46875 -44.546875 L 45.46875 -26.296875 L 65.578125 -26.296875 C 67.535156 -26.296875 69.003906 -26.8125 69.984375 -27.84375 C 70.960938 -28.875 71.453125 -30.421875 71.453125 -32.484375 L 71.453125 -38.515625 C 71.453125 -40.578125 70.960938 -42.097656 69.984375 -43.078125 C 69.003906 -44.054688 67.535156 -44.546875 65.578125 -44.546875 Z M 45.46875 -44.546875 "/></g></g></g><g fill="#7843e6" fill-opacity="1"><g transform="translate(465.900393, 343.472933)"><g><path d="M 51.046875 -78.875 L 43.765625 -55.375 L 68.0625 -55.375 L 60.78125 -78.875 C 60.375 -79.8125 59.9375 -80.484375 59.46875 -80.890625 C 59.007812 -81.304688 58.46875 -81.515625 57.84375 -81.515625 L 53.984375 -81.515625 C 53.359375 -81.515625 52.8125 -81.304688 52.34375 -80.890625 C 51.882812 -80.484375 51.453125 -79.8125 51.046875 -78.875 Z M 42.21875 -5.5625 C 42.21875 -3.601562 41.78125 -2.1875 40.90625 -1.3125 C 40.03125 -0.4375 38.613281 0 36.65625 0 L 13.921875 0 C 11.960938 0 10.546875 -0.4375 9.671875 -1.3125 C 8.796875 -2.1875 8.359375 -3.601562 8.359375 -5.5625 L 8.359375 -46.40625 C 8.359375 -49.5 8.847656 -53.054688 9.828125 -57.078125 C 10.804688 -61.097656 12.328125 -65.789062 14.390625 -71.15625 L 27.84375 -106.265625 C 28.457031 -108.015625 29.410156 -109.300781 30.703125 -110.125 C 31.992188 -110.945312 33.671875 -111.359375 35.734375 -111.359375 L 77.34375 -111.359375 C 79.300781 -111.359375 80.921875 -110.945312 82.203125 -110.125 C 83.492188 -109.300781 84.445312 -108.015625 85.0625 -106.265625 L 98.53125 -71.15625 C 100.59375 -65.789062 102.113281 -61.097656 103.09375 -57.078125 C 104.070312 -53.054688 104.5625 -49.5 104.5625 -46.40625 L 104.5625 -5.5625 C 104.5625 -3.601562 104.117188 -2.1875 103.234375 -1.3125 C 102.359375 -0.4375 100.941406 0 98.984375 0 L 75.640625 0 C 73.578125 0 72.054688 -0.4375 71.078125 -1.3125 C 70.097656 -2.1875 69.609375 -3.601562 69.609375 -5.5625 L 69.609375 -27.21875 L 42.21875 -27.21875 Z M 42.21875 -5.5625 "/></g></g></g><g fill="#7843e6" fill-opacity="1"><g transform="translate(578.80996, 343.472933)"><g><path d="M 39.4375 0 L 16.234375 0 C 14.273438 0 12.859375 -0.4375 11.984375 -1.3125 C 11.109375 -2.1875 10.671875 -3.601562 10.671875 -5.5625 L 10.671875 -105.796875 C 10.671875 -107.753906 11.109375 -109.171875 11.984375 -110.046875 C 12.859375 -110.921875 14.273438 -111.359375 16.234375 -111.359375 L 32.328125 -111.359375 C 34.285156 -111.359375 35.957031 -111.046875 37.34375 -110.421875 C 38.738281 -109.804688 40.109375 -108.726562 41.453125 -107.1875 L 71.453125 -72.84375 L 71.453125 -105.796875 C 71.453125 -107.753906 71.890625 -109.171875 72.765625 -110.046875 C 73.648438 -110.921875 75.070312 -111.359375 77.03125 -111.359375 L 100.234375 -111.359375 C 102.191406 -111.359375 103.609375 -110.921875 104.484375 -110.046875 C 105.359375 -109.171875 105.796875 -107.753906 105.796875 -105.796875 L 105.796875 -5.5625 C 105.796875 -3.601562 105.359375 -2.1875 104.484375 -1.3125 C 103.609375 -0.4375 102.191406 0 100.234375 0 L 77.03125 0 C 75.070312 0 73.648438 -0.4375 72.765625 -1.3125 C 71.890625 -2.1875 71.453125 -3.601562 71.453125 -5.5625 L 71.453125 -24.59375 L 45.015625 -56.609375 L 45.015625 -5.5625 C 45.015625 -3.601562 44.570312 -2.1875 43.6875 -1.3125 C 42.8125 -0.4375 41.394531 0 39.4375 0 Z M 39.4375 0 "/></g></g></g><g fill="#7843e6" fill-opacity="1"><g transform="translate(695.276948, 343.472933)"><g><path d="M 89.40625 0 L 12.6875 0 C 10.726562 0 9.304688 -0.4375 8.421875 -1.3125 C 7.546875 -2.1875 7.109375 -3.601562 7.109375 -5.5625 L 7.109375 -26.296875 C 7.109375 -28.253906 7.414062 -29.976562 8.03125 -31.46875 C 8.65625 -32.96875 9.640625 -34.441406 10.984375 -35.890625 L 48.5625 -81.515625 L 15.46875 -81.515625 C 13.507812 -81.515625 12.09375 -81.953125 11.21875 -82.828125 C 10.34375 -83.703125 9.90625 -85.117188 9.90625 -87.078125 L 9.90625 -105.796875 C 9.90625 -107.753906 10.34375 -109.171875 11.21875 -110.046875 C 12.09375 -110.921875 13.507812 -111.359375 15.46875 -111.359375 L 86.609375 -111.359375 C 88.578125 -111.359375 90 -110.921875 90.875 -110.046875 C 91.75 -109.171875 92.1875 -107.753906 92.1875 -105.796875 L 92.1875 -82.75 C 92.1875 -80.6875 91.875 -78.90625 91.25 -77.40625 C 90.632812 -75.914062 89.65625 -74.445312 88.3125 -73 L 52.4375 -29.546875 L 89.40625 -29.546875 C 91.363281 -29.546875 92.78125 -29.101562 93.65625 -28.21875 C 94.53125 -27.34375 94.96875 -25.925781 94.96875 -23.96875 L 94.96875 -5.5625 C 94.96875 -3.601562 94.53125 -2.1875 93.65625 -1.3125 C 92.78125 -0.4375 91.363281 0 89.40625 0 Z M 89.40625 0 "/></g></g></g><g fill="#7843e6" fill-opacity="1"><g transform="translate(797.359509, 343.472933)"><g><path d="M 88.015625 0 L 16.234375 0 C 14.273438 0 12.859375 -0.4375 11.984375 -1.3125 C 11.109375 -2.1875 10.671875 -3.601562 10.671875 -5.5625 L 10.671875 -105.796875 C 10.671875 -107.753906 11.109375 -109.171875 11.984375 -110.046875 C 12.859375 -110.921875 14.273438 -111.359375 16.234375 -111.359375 L 88.015625 -111.359375 C 89.972656 -111.359375 91.390625 -110.921875 92.265625 -110.046875 C 93.140625 -109.171875 93.578125 -107.753906 93.578125 -105.796875 L 93.578125 -87.703125 C 93.578125 -85.742188 93.140625 -84.320312 92.265625 -83.4375 C 91.390625 -82.5625 89.972656 -82.125 88.015625 -82.125 L 45.3125 -82.125 L 45.3125 -70.21875 L 75.484375 -70.21875 C 77.441406 -70.21875 78.859375 -69.78125 79.734375 -68.90625 C 80.609375 -68.03125 81.046875 -66.613281 81.046875 -64.65625 L 81.046875 -48.109375 C 81.046875 -46.148438 80.609375 -44.726562 79.734375 -43.84375 C 78.859375 -42.96875 77.441406 -42.53125 75.484375 -42.53125 L 45.3125 -42.53125 L 45.3125 -29.234375 L 88.015625 -29.234375 C 89.972656 -29.234375 91.390625 -28.796875 92.265625 -27.921875 C 93.140625 -27.046875 93.578125 -25.628906 93.578125 -23.671875 L 93.578125 -5.5625 C 93.578125 -3.601562 93.140625 -2.1875 92.265625 -1.3125 C 91.390625 -0.4375 89.972656 0 88.015625 0 Z M 88.015625 0 "/></g></g></g><g fill="#7843e6" fill-opacity="1"><g transform="translate(898.514086, 343.472933)"><g><path d="M 39.4375 0 L 16.234375 0 C 14.273438 0 12.859375 -0.4375 11.984375 -1.3125 C 11.109375 -2.1875 10.671875 -3.601562 10.671875 -5.5625 L 10.671875 -105.796875 C 10.671875 -107.753906 11.109375 -109.171875 11.984375 -110.046875 C 12.859375 -110.921875 14.273438 -111.359375 16.234375 -111.359375 L 32.328125 -111.359375 C 34.285156 -111.359375 35.957031 -111.046875 37.34375 -110.421875 C 38.738281 -109.804688 40.109375 -108.726562 41.453125 -107.1875 L 71.453125 -72.84375 L 71.453125 -105.796875 C 71.453125 -107.753906 71.890625 -109.171875 72.765625 -110.046875 C 73.648438 -110.921875 75.070312 -111.359375 77.03125 -111.359375 L 100.234375 -111.359375 C 102.191406 -111.359375 103.609375 -110.921875 104.484375 -110.046875 C 105.359375 -109.171875 105.796875 -107.753906 105.796875 -105.796875 L 105.796875 -5.5625 C 105.796875 -3.601562 105.359375 -2.1875 104.484375 -1.3125 C 103.609375 -0.4375 102.191406 0 100.234375 0 L 77.03125 0 C 75.070312 0 73.648438 -0.4375 72.765625 -1.3125 C 71.890625 -2.1875 71.453125 -3.601562 71.453125 -5.5625 L 71.453125 -24.59375 L 45.015625 -56.609375 L 45.015625 -5.5625 C 45.015625 -3.601562 44.570312 -2.1875 43.6875 -1.3125 C 42.8125 -0.4375 41.394531 0 39.4375 0 Z M 39.4375 0 "/></g></g></g></svg>